<svg version="1.1" id="Layer_1" xmlns="http://www.w3.org/2000/svg" xmlns:xlink="http://www.w3.org/1999/xlink" x="0px" y="0px" width="100%" viewBox="0 0 1024 400" enable-background="new 0 0 1024 400" xml:space="preserve">
<path fill="#ffffff" opacity="1.000000" stroke="none" d=" M468.985260,12.924412   C509.943878,13.876680 550.350891,15.809657 590.634949,19.836060   C639.033203,24.673471 687.005554,32.352516 734.812988,41.230709   C775.901794,48.861214 816.805298,57.363445 857.481018,66.907906   C878.869019,71.926537 900.345215,76.691177 921.344727,83.272781   C928.046936,85.373344 928.405945,86.266861 924.054016,91.906250   C922.141846,94.384148 919.999756,96.684624 917.739258,99.325958   C920.388672,101.374451 923.404541,101.766792 926.144226,102.746681   C946.355713,109.975769 965.719910,118.734764 981.517700,133.796555   C1003.604065,154.854111 1008.571106,180.018036 998.612244,208.327850   C989.812378,233.343140 973.276794,253.062622 954.267395,270.919556   C923.151611,300.148895 886.219971,319.595215 846.890076,335.212280   C809.617371,350.012543 771.215637,360.828247 731.995667,368.771881   C703.775757,374.487579 675.278076,378.525726 646.615540,381.497375   C605.311523,385.779663 563.921265,388.039368 522.419861,386.836365   C479.473877,385.591583 436.707336,382.205566 394.167236,375.670929   C343.863464,367.943695 294.459930,356.582336 246.099014,340.861359   C191.604172,323.146332 139.007263,300.997589 90.132492,270.769196   C65.910370,255.788162 43.501530,238.453583 26.609564,215.114380   C4.885000,185.098099 5.050794,151.023727 26.536573,120.760773   C43.029545,97.530228 65.309433,81.163948 89.756645,67.339294   C115.087311,53.015053 142.447067,44.293858 170.601151,37.619221   C203.200653,29.890692 236.126266,24.255972 269.429413,20.522171   C304.537384,16.586020 339.725555,14.547566 375.026550,13.530246   C406.185547,12.632292 437.333466,12.894696 468.985260,12.924412  M710.832336,58.619934   C730.843872,61.194778 750.855408,63.769623 770.866943,66.344467   C767.884766,65.337250 764.825317,64.614525 761.806152,63.750912   C727.849915,54.038055 693.405151,46.451115 658.660034,40.217072   C619.482239,33.187695 580.052673,28.149940 540.361572,24.969042   C510.140381,22.547070 479.889923,20.919453 449.592255,20.416531   C407.105865,19.711281 364.666321,21.040579 322.275299,24.139261   C296.045563,26.056591 269.856812,28.163902 243.855499,32.288719   C207.492523,38.057297 171.326920,44.681751 136.301834,56.363800   C105.114639,66.765785 75.204636,79.728958 50.876942,102.660522   C32.456207,120.024117 25.008402,141.421783 30.042700,166.529938   C33.685318,184.697174 43.542053,199.738602 55.282352,213.588821   C74.108635,235.798447 96.746605,253.625946 121.366859,268.850586   C176.141495,302.722076 235.060486,327.370850 296.736542,345.382141   C368.882446,366.450928 442.696716,377.483887 517.794495,379.596771   C564.305908,380.905365 610.752991,379.241058 656.960327,373.508942   C708.938843,367.060883 760.214111,357.182953 810.107117,340.824524   C849.020325,328.065979 886.819336,312.869568 921.273804,290.370758   C943.108643,276.112549 962.657349,259.408295 975.607178,236.209015   C987.539001,214.833282 990.106079,192.783386 979.224304,170.209030   C971.426575,154.032639 958.306396,142.802536 943.376160,133.516556   C918.624878,118.122307 891.191040,109.304008 863.436523,101.380234   C823.991577,90.118904 783.780945,82.451805 743.235168,76.523415   C714.908081,72.381569 686.479126,69.081825 657.911255,66.956940   C636.155457,65.338745 614.406860,63.774906 592.604614,62.862732   C558.973938,61.455673 525.359802,60.370132 491.737000,62.999382   C488.211029,63.275112 484.556000,64.052017 481.308777,62.623238   C480.533722,60.805309 481.159149,59.569092 481.829498,58.439644   C486.692413,50.246143 493.480164,43.945961 501.382660,38.767914   C502.698425,37.905739 504.183197,37.834778 505.718140,37.979366   C525.108398,39.805916 544.500916,41.608662 563.891541,43.431808   C590.077393,45.893860 616.269348,48.293629 642.445007,50.860176   C664.981201,53.069881 687.520386,55.281857 710.832336,58.619934  z"/>
</svg>